<?xml version="1.0" encoding="UTF-8" standalone="no"?>
<!-- Created with Inkscape (http://www.inkscape.org/) -->
<svg xmlns:dc="http://purl.org/dc/elements/1.1/" xmlns:cc="http://creativecommons.org/ns#" xmlns:rdf="http://www.w3.org/1999/02/22-rdf-syntax-ns#" xmlns:svg="http://www.w3.org/2000/svg" xmlns="http://www.w3.org/2000/svg" xmlns:xlink="http://www.w3.org/1999/xlink" xmlns:sodipodi="http://sodipodi.sourceforge.net/DTD/sodipodi-0.dtd" xmlns:inkscape="http://www.inkscape.org/namespaces/inkscape" width="670.93365" height="517.24011" id="svg2" version="1.1" inkscape:version="0.47 r22583" sodipodi:docname="babyfisch.svg">
  <defs id="defs4">
    <linearGradient id="linearGradient4515">
      <stop style="stop-color:#004f66;stop-opacity:1;" offset="0" id="stop4517"/>
      <stop style="stop-color:#008080;stop-opacity:0;" offset="1" id="stop4519"/>
    </linearGradient>
    <linearGradient id="linearGradient3991">
      <stop style="stop-color:#009980;stop-opacity:1;" offset="0" id="stop3993"/>
      <stop style="stop-color:#004644;stop-opacity:1;" offset="1" id="stop3995"/>
    </linearGradient>
    <linearGradient id="linearGradient3983">
      <stop style="stop-color:#000000;stop-opacity:1;" offset="0" id="stop3985"/>
      <stop style="stop-color:#000000;stop-opacity:0;" offset="1" id="stop3987"/>
    </linearGradient>
    <inkscape:perspective sodipodi:type="inkscape:persp3d" inkscape:vp_x="0 : 526.18109 : 1" inkscape:vp_y="0 : 1000 : 0" inkscape:vp_z="744.09448 : 526.18109 : 1" inkscape:persp3d-origin="372.04724 : 350.78739 : 1" id="perspective10"/>
    <inkscape:perspective id="perspective3615" inkscape:persp3d-origin="0.5 : 0.33333333 : 1" inkscape:vp_z="1 : 0.5 : 1" inkscape:vp_y="0 : 1000 : 0" inkscape:vp_x="0 : 0.5 : 1" sodipodi:type="inkscape:persp3d"/>
    <inkscape:perspective id="perspective2827" inkscape:persp3d-origin="0.5 : 0.33333333 : 1" inkscape:vp_z="1 : 0.5 : 1" inkscape:vp_y="0 : 1000 : 0" inkscape:vp_x="0 : 0.5 : 1" sodipodi:type="inkscape:persp3d"/>
    <inkscape:perspective id="perspective2854" inkscape:persp3d-origin="0.5 : 0.33333333 : 1" inkscape:vp_z="1 : 0.5 : 1" inkscape:vp_y="0 : 1000 : 0" inkscape:vp_x="0 : 0.5 : 1" sodipodi:type="inkscape:persp3d"/>
    <inkscape:perspective id="perspective2854-8" inkscape:persp3d-origin="0.5 : 0.33333333 : 1" inkscape:vp_z="1 : 0.5 : 1" inkscape:vp_y="0 : 1000 : 0" inkscape:vp_x="0 : 0.5 : 1" sodipodi:type="inkscape:persp3d"/>
    <inkscape:perspective id="perspective2854-1" inkscape:persp3d-origin="0.5 : 0.33333333 : 1" inkscape:vp_z="1 : 0.5 : 1" inkscape:vp_y="0 : 1000 : 0" inkscape:vp_x="0 : 0.5 : 1" sodipodi:type="inkscape:persp3d"/>
    <inkscape:perspective id="perspective2854-11" inkscape:persp3d-origin="0.5 : 0.33333333 : 1" inkscape:vp_z="1 : 0.5 : 1" inkscape:vp_y="0 : 1000 : 0" inkscape:vp_x="0 : 0.5 : 1" sodipodi:type="inkscape:persp3d"/>
    <inkscape:perspective id="perspective2854-6" inkscape:persp3d-origin="0.5 : 0.33333333 : 1" inkscape:vp_z="1 : 0.5 : 1" inkscape:vp_y="0 : 1000 : 0" inkscape:vp_x="0 : 0.5 : 1" sodipodi:type="inkscape:persp3d"/>
    <inkscape:perspective id="perspective2854-0" inkscape:persp3d-origin="0.5 : 0.33333333 : 1" inkscape:vp_z="1 : 0.5 : 1" inkscape:vp_y="0 : 1000 : 0" inkscape:vp_x="0 : 0.5 : 1" sodipodi:type="inkscape:persp3d"/>
    <inkscape:perspective id="perspective2854-9" inkscape:persp3d-origin="0.5 : 0.33333333 : 1" inkscape:vp_z="1 : 0.5 : 1" inkscape:vp_y="0 : 1000 : 0" inkscape:vp_x="0 : 0.5 : 1" sodipodi:type="inkscape:persp3d"/>
    <inkscape:perspective id="perspective2854-13" inkscape:persp3d-origin="0.5 : 0.33333333 : 1" inkscape:vp_z="1 : 0.5 : 1" inkscape:vp_y="0 : 1000 : 0" inkscape:vp_x="0 : 0.5 : 1" sodipodi:type="inkscape:persp3d"/>
    <inkscape:perspective id="perspective3718" inkscape:persp3d-origin="0.5 : 0.33333333 : 1" inkscape:vp_z="1 : 0.5 : 1" inkscape:vp_y="0 : 1000 : 0" inkscape:vp_x="0 : 0.5 : 1" sodipodi:type="inkscape:persp3d"/>
    <inkscape:perspective id="perspective3740" inkscape:persp3d-origin="0.5 : 0.33333333 : 1" inkscape:vp_z="1 : 0.5 : 1" inkscape:vp_y="0 : 1000 : 0" inkscape:vp_x="0 : 0.5 : 1" sodipodi:type="inkscape:persp3d"/>
    <inkscape:perspective id="perspective3740-5" inkscape:persp3d-origin="0.5 : 0.33333333 : 1" inkscape:vp_z="1 : 0.5 : 1" inkscape:vp_y="0 : 1000 : 0" inkscape:vp_x="0 : 0.5 : 1" sodipodi:type="inkscape:persp3d"/>
    <inkscape:perspective id="perspective3771" inkscape:persp3d-origin="0.5 : 0.33333333 : 1" inkscape:vp_z="1 : 0.5 : 1" inkscape:vp_y="0 : 1000 : 0" inkscape:vp_x="0 : 0.5 : 1" sodipodi:type="inkscape:persp3d"/>
    <inkscape:perspective id="perspective3793" inkscape:persp3d-origin="0.5 : 0.33333333 : 1" inkscape:vp_z="1 : 0.5 : 1" inkscape:vp_y="0 : 1000 : 0" inkscape:vp_x="0 : 0.5 : 1" sodipodi:type="inkscape:persp3d"/>
    <inkscape:perspective id="perspective3815" inkscape:persp3d-origin="0.5 : 0.33333333 : 1" inkscape:vp_z="1 : 0.5 : 1" inkscape:vp_y="0 : 1000 : 0" inkscape:vp_x="0 : 0.5 : 1" sodipodi:type="inkscape:persp3d"/>
    <inkscape:perspective id="perspective3837" inkscape:persp3d-origin="0.5 : 0.33333333 : 1" inkscape:vp_z="1 : 0.5 : 1" inkscape:vp_y="0 : 1000 : 0" inkscape:vp_x="0 : 0.5 : 1" sodipodi:type="inkscape:persp3d"/>
    <inkscape:perspective id="perspective3864" inkscape:persp3d-origin="0.5 : 0.33333333 : 1" inkscape:vp_z="1 : 0.5 : 1" inkscape:vp_y="0 : 1000 : 0" inkscape:vp_x="0 : 0.5 : 1" sodipodi:type="inkscape:persp3d"/>
    <inkscape:perspective id="perspective3886" inkscape:persp3d-origin="0.5 : 0.33333333 : 1" inkscape:vp_z="1 : 0.5 : 1" inkscape:vp_y="0 : 1000 : 0" inkscape:vp_x="0 : 0.5 : 1" sodipodi:type="inkscape:persp3d"/>
    <inkscape:perspective id="perspective3908" inkscape:persp3d-origin="0.5 : 0.33333333 : 1" inkscape:vp_z="1 : 0.5 : 1" inkscape:vp_y="0 : 1000 : 0" inkscape:vp_x="0 : 0.5 : 1" sodipodi:type="inkscape:persp3d"/>
    <inkscape:perspective id="perspective3908-5" inkscape:persp3d-origin="0.5 : 0.33333333 : 1" inkscape:vp_z="1 : 0.5 : 1" inkscape:vp_y="0 : 1000 : 0" inkscape:vp_x="0 : 0.5 : 1" sodipodi:type="inkscape:persp3d"/>
    <inkscape:perspective id="perspective3947" inkscape:persp3d-origin="0.5 : 0.33333333 : 1" inkscape:vp_z="1 : 0.5 : 1" inkscape:vp_y="0 : 1000 : 0" inkscape:vp_x="0 : 0.5 : 1" sodipodi:type="inkscape:persp3d"/>
    <inkscape:perspective id="perspective3969" inkscape:persp3d-origin="0.5 : 0.33333333 : 1" inkscape:vp_z="1 : 0.5 : 1" inkscape:vp_y="0 : 1000 : 0" inkscape:vp_x="0 : 0.5 : 1" sodipodi:type="inkscape:persp3d"/>
    <inkscape:perspective id="perspective4007" inkscape:persp3d-origin="0.5 : 0.33333333 : 1" inkscape:vp_z="1 : 0.5 : 1" inkscape:vp_y="0 : 1000 : 0" inkscape:vp_x="0 : 0.5 : 1" sodipodi:type="inkscape:persp3d"/>
    <linearGradient inkscape:collect="always" xlink:href="#linearGradient3991-2" id="linearGradient3997-8" x1="217.68787" y1="550.31635" x2="217.68787" y2="558.39758" gradientUnits="userSpaceOnUse"/>
    <linearGradient id="linearGradient3991-2">
      <stop style="stop-color:#009980;stop-opacity:1;" offset="0" id="stop3993-6"/>
      <stop style="stop-color:#004644;stop-opacity:1;" offset="1" id="stop3995-7"/>
    </linearGradient>
    <inkscape:perspective id="perspective4046" inkscape:persp3d-origin="0.5 : 0.33333333 : 1" inkscape:vp_z="1 : 0.5 : 1" inkscape:vp_y="0 : 1000 : 0" inkscape:vp_x="0 : 0.5 : 1" sodipodi:type="inkscape:persp3d"/>
    <linearGradient inkscape:collect="always" xlink:href="#linearGradient3991-7" id="linearGradient3997-2" x1="217.68787" y1="550.31635" x2="217.68787" y2="558.39758" gradientUnits="userSpaceOnUse" gradientTransform="translate(-18.1827, -11.6168)"/>
    <linearGradient id="linearGradient3991-7">
      <stop style="stop-color:#009980;stop-opacity:1;" offset="0" id="stop3993-2"/>
      <stop style="stop-color:#004644;stop-opacity:1;" offset="1" id="stop3995-0"/>
    </linearGradient>
    <inkscape:perspective id="perspective4092" inkscape:persp3d-origin="0.5 : 0.33333333 : 1" inkscape:vp_z="1 : 0.5 : 1" inkscape:vp_y="0 : 1000 : 0" inkscape:vp_x="0 : 0.5 : 1" sodipodi:type="inkscape:persp3d"/>
    <inkscape:perspective id="perspective4092-8" inkscape:persp3d-origin="0.5 : 0.33333333 : 1" inkscape:vp_z="1 : 0.5 : 1" inkscape:vp_y="0 : 1000 : 0" inkscape:vp_x="0 : 0.5 : 1" sodipodi:type="inkscape:persp3d"/>
    <inkscape:perspective id="perspective4092-1" inkscape:persp3d-origin="0.5 : 0.33333333 : 1" inkscape:vp_z="1 : 0.5 : 1" inkscape:vp_y="0 : 1000 : 0" inkscape:vp_x="0 : 0.5 : 1" sodipodi:type="inkscape:persp3d"/>
    <inkscape:perspective id="perspective4092-80" inkscape:persp3d-origin="0.5 : 0.33333333 : 1" inkscape:vp_z="1 : 0.5 : 1" inkscape:vp_y="0 : 1000 : 0" inkscape:vp_x="0 : 0.5 : 1" sodipodi:type="inkscape:persp3d"/>
    <inkscape:perspective id="perspective4148" inkscape:persp3d-origin="0.5 : 0.33333333 : 1" inkscape:vp_z="1 : 0.5 : 1" inkscape:vp_y="0 : 1000 : 0" inkscape:vp_x="0 : 0.5 : 1" sodipodi:type="inkscape:persp3d"/>
    <inkscape:perspective id="perspective4148-4" inkscape:persp3d-origin="0.5 : 0.33333333 : 1" inkscape:vp_z="1 : 0.5 : 1" inkscape:vp_y="0 : 1000 : 0" inkscape:vp_x="0 : 0.5 : 1" sodipodi:type="inkscape:persp3d"/>
    <inkscape:perspective id="perspective4203" inkscape:persp3d-origin="0.5 : 0.33333333 : 1" inkscape:vp_z="1 : 0.5 : 1" inkscape:vp_y="0 : 1000 : 0" inkscape:vp_x="0 : 0.5 : 1" sodipodi:type="inkscape:persp3d"/>
    <inkscape:perspective id="perspective4225" inkscape:persp3d-origin="0.5 : 0.33333333 : 1" inkscape:vp_z="1 : 0.5 : 1" inkscape:vp_y="0 : 1000 : 0" inkscape:vp_x="0 : 0.5 : 1" sodipodi:type="inkscape:persp3d"/>
    <filter inkscape:collect="always" id="filter4262" x="-0.22994746" width="1.4598949" y="-0.18324599" height="1.366492" color-interpolation-filters="sRGB">
      <feGaussianBlur inkscape:collect="always" stdDeviation="3.1007795" id="feGaussianBlur4264"/>
    </filter>
    <inkscape:perspective id="perspective4278" inkscape:persp3d-origin="0.5 : 0.33333333 : 1" inkscape:vp_z="1 : 0.5 : 1" inkscape:vp_y="0 : 1000 : 0" inkscape:vp_x="0 : 0.5 : 1" sodipodi:type="inkscape:persp3d"/>
    <inkscape:perspective id="perspective4306" inkscape:persp3d-origin="0.5 : 0.33333333 : 1" inkscape:vp_z="1 : 0.5 : 1" inkscape:vp_y="0 : 1000 : 0" inkscape:vp_x="0 : 0.5 : 1" sodipodi:type="inkscape:persp3d"/>
    <filter inkscape:collect="always" id="filter4330" x="-0.2048623" width="1.4097246" y="-0.16325551" height="1.326511" color-interpolation-filters="sRGB">
      <feGaussianBlur inkscape:collect="always" stdDeviation="2.7625126" id="feGaussianBlur4332"/>
    </filter>
    <inkscape:perspective id="perspective4344" inkscape:persp3d-origin="0.5 : 0.33333333 : 1" inkscape:vp_z="1 : 0.5 : 1" inkscape:vp_y="0 : 1000 : 0" inkscape:vp_x="0 : 0.5 : 1" sodipodi:type="inkscape:persp3d"/>
    <inkscape:perspective id="perspective4380" inkscape:persp3d-origin="0.5 : 0.33333333 : 1" inkscape:vp_z="1 : 0.5 : 1" inkscape:vp_y="0 : 1000 : 0" inkscape:vp_x="0 : 0.5 : 1" sodipodi:type="inkscape:persp3d"/>
    <inkscape:perspective id="perspective4425" inkscape:persp3d-origin="0.5 : 0.33333333 : 1" inkscape:vp_z="1 : 0.5 : 1" inkscape:vp_y="0 : 1000 : 0" inkscape:vp_x="0 : 0.5 : 1" sodipodi:type="inkscape:persp3d"/>
    <filter inkscape:collect="always" id="filter4439" color-interpolation-filters="sRGB">
      <feGaussianBlur inkscape:collect="always" stdDeviation="1.6772433" id="feGaussianBlur4441"/>
    </filter>
    <inkscape:perspective id="perspective4455" inkscape:persp3d-origin="0.5 : 0.33333333 : 1" inkscape:vp_z="1 : 0.5 : 1" inkscape:vp_y="0 : 1000 : 0" inkscape:vp_x="0 : 0.5 : 1" sodipodi:type="inkscape:persp3d"/>
    <inkscape:perspective id="perspective4493" inkscape:persp3d-origin="0.5 : 0.33333333 : 1" inkscape:vp_z="1 : 0.5 : 1" inkscape:vp_y="0 : 1000 : 0" inkscape:vp_x="0 : 0.5 : 1" sodipodi:type="inkscape:persp3d"/>
    <inkscape:perspective id="perspective4568" inkscape:persp3d-origin="0.5 : 0.33333333 : 1" inkscape:vp_z="1 : 0.5 : 1" inkscape:vp_y="0 : 1000 : 0" inkscape:vp_x="0 : 0.5 : 1" sodipodi:type="inkscape:persp3d"/>
    <linearGradient id="linearGradient4515-1">
      <stop style="stop-color:#004f66;stop-opacity:1;" offset="0" id="stop4517-7"/>
      <stop style="stop-color:#008080;stop-opacity:0;" offset="1" id="stop4519-1"/>
    </linearGradient>
    <linearGradient id="linearGradient3991-0">
      <stop style="stop-color:#009980;stop-opacity:1;" offset="0" id="stop3993-7"/>
      <stop style="stop-color:#004644;stop-opacity:1;" offset="1" id="stop3995-5"/>
    </linearGradient>
    <linearGradient id="linearGradient3991-7-3">
      <stop style="stop-color:#009980;stop-opacity:1;" offset="0" id="stop3993-2-6"/>
      <stop style="stop-color:#004644;stop-opacity:1;" offset="1" id="stop3995-0-7"/>
    </linearGradient>
    <filter inkscape:collect="always" id="filter4702" x="-0.3222419" width="1.6444838" y="-0.062409628" height="1.1248193" color-interpolation-filters="sRGB">
      <feGaussianBlur inkscape:collect="always" stdDeviation="5.8462769" id="feGaussianBlur4704"/>
    </filter>
    <linearGradient inkscape:collect="always" xlink:href="#linearGradient4515" id="linearGradient4729" gradientUnits="userSpaceOnUse" x1="272.85715" y1="535.21936" x2="225.22911" y2="325.01138"/>
    <linearGradient inkscape:collect="always" xlink:href="#linearGradient3991" id="linearGradient4731" gradientUnits="userSpaceOnUse" gradientTransform="translate(-18.1827, -11.6168)" x1="217.68787" y1="550.31635" x2="217.68787" y2="558.39758"/>
    <linearGradient inkscape:collect="always" xlink:href="#linearGradient3991-7" id="linearGradient4733" gradientUnits="userSpaceOnUse" gradientTransform="matrix(0.989063, -0.147492, 0.147492, 0.989063, -97.1509, 39.2244)" x1="217.68787" y1="550.31635" x2="217.68787" y2="558.39758"/>
    <filter inkscape:collect="always" id="filter4753" x="-0.038857445" width="1.0777149" y="-0.25080714" height="1.5016143" color-interpolation-filters="sRGB">
      <feGaussianBlur inkscape:collect="always" stdDeviation="9.8531373" id="feGaussianBlur4755"/>
    </filter>
    <filter inkscape:collect="always" id="filter4763" color-interpolation-filters="sRGB">
      <feGaussianBlur inkscape:collect="always" stdDeviation="1.2360597" id="feGaussianBlur4765"/>
    </filter>
    <linearGradient inkscape:collect="always" xlink:href="#linearGradient4515" id="linearGradient4793" gradientUnits="userSpaceOnUse" x1="272.85715" y1="535.21936" x2="225.22911" y2="325.01138"/>
    <linearGradient inkscape:collect="always" xlink:href="#linearGradient3991" id="linearGradient4795" gradientUnits="userSpaceOnUse" gradientTransform="translate(-18.1827, -11.6168)" x1="217.68787" y1="550.31635" x2="217.68787" y2="558.39758"/>
    <linearGradient inkscape:collect="always" xlink:href="#linearGradient3991-7" id="linearGradient4797" gradientUnits="userSpaceOnUse" gradientTransform="matrix(0.989063, -0.147492, 0.147492, 0.989063, -97.1509, 39.2244)" x1="217.68787" y1="550.31635" x2="217.68787" y2="558.39758"/>
  </defs>
  <sodipodi:namedview id="base" pagecolor="#ffffff" bordercolor="#666666" borderopacity="1.0" inkscape:pageopacity="0.0" inkscape:pageshadow="2" inkscape:zoom="0.35" inkscape:cx="507.26911" inkscape:cy="297.09507" inkscape:document-units="px" inkscape:current-layer="layer1" showgrid="false" inkscape:window-width="999" inkscape:window-height="719" inkscape:window-x="0" inkscape:window-y="0" inkscape:window-maximized="1"/>
  <metadata id="metadata7">
    <rdf:RDF>
      <cc:Work rdf:about="">
        <dc:format>image/svg+xml</dc:format>
        <dc:type rdf:resource="http://purl.org/dc/dcmitype/StillImage"/>
        <dc:title/>
      </cc:Work>
    </rdf:RDF>
  </metadata>
  <g inkscape:label="Ebene 1" inkscape:groupmode="layer" id="layer1" transform="translate(-38.4281, -73.0553)">
    <g id="g4767" transform="matrix(0.936123, 0, 0, 0.936123, 22.4547, 23.4205)">
      <g transform="matrix(1.38771, 0, 0, 1.38771, -137.811, -171.061)" id="g4706">
        <g id="g4538" transform="translate(5.71429, -108.571)">
          <path sodipodi:nodetypes="cccc" id="path4370" d="m 354.28571,318.12949 c 38.01412,-16.57323 88.44128,57.7947 128.57143,37.97154 l -4.28571,23.3671 c -52.51559,10.72331 -86.05112,-31.91304 -124.28572,-61.33864 z" style="fill:#008080;fill-opacity:1;stroke:none"/>
          <path transform="matrix(0.997312, 0, 0, 0.997312, -8.19508, 24.2958)" sodipodi:open="true" sodipodi:end="6.1552478" sodipodi:start="0" d="m 405.71429,402.36218 c 0,73.37498 -59.48217,132.85715 -132.85714,132.85715 C 199.48217,535.21933 140,475.73716 140,402.36218 c 0,-73.37497 59.48217,-132.85714 132.85715,-132.85714 66.82166,0 123.24563,49.63052 131.77132,115.90606" sodipodi:ry="132.85715" sodipodi:rx="132.85715" sodipodi:cy="402.36218" sodipodi:cx="272.85715" id="path2816" style="fill:#008080;fill-opacity:1;stroke:none" sodipodi:type="arc"/>
          <g transform="translate(-8.57143, 22.8571)" id="g3597">
            <path sodipodi:nodetypes="ccccczcccc" id="rect2820" d="m 274.28125,270.21875 0,265 c 140.1788,-0.20002 138.41966,-120.20901 245.1875,-70 l 6.06092,3.53617 c 27.27996,14.08629 43.53132,67.96173 62.79622,55.13347 20.05057,-10.84473 -16.35269,-57.27848 -16.1973,-120.4624 0.15539,-63.18392 39.53839,-102.90113 16.34016,-119.80099 -21.39874,-14.96947 -41.95981,38.65569 -65.40952,53.6276 l -4.4355,3.27802 C 412.94124,397.07543 405.00027,269.80439 274.28125,270.21875 z" style="fill:#008080;fill-opacity:1;stroke:none"/>
          </g>
          <path inkscape:transform-center-y="3.706385e-05" inkscape:transform-center-x="-69.865521" transform="matrix(3.64472, 2.83376, -2.15866, 3.40621, 39.5343, -1331.83)" d="m 248.57143,312.36218 c 0,12.62365 -6.07614,22.85715 -13.57143,22.85715 -7.49529,0 -13.57143,-10.2335 -13.57143,-22.85715 0,-12.62365 6.07614,-22.85714 13.57143,-22.85714 7.49529,0 13.57143,10.23349 13.57143,22.85714 z" sodipodi:ry="22.857143" sodipodi:rx="13.571428" sodipodi:cy="312.36218" sodipodi:cx="235" id="path4256-9" style="opacity:0.60883286;fill:#ffffff;fill-opacity:1;stroke:none;filter:url(#filter4330)" sodipodi:type="arc"/>
          <path sodipodi:nodetypes="cssscc" id="path3602" d="m 254.69579,405.84063 c -10.98233,27.46678 -38.37755,42.33903 -61.18895,33.21811 -22.81139,-9.12091 -32.40074,-38.7811 -21.41841,-66.24788 10.98233,-27.46678 38.37756,-42.33903 61.18895,-33.21812 22.67563,9.06664 32.31002,38.44965 21.58446,65.82836 l -0.16584,0.41961 z" style="fill:#2ca089;fill-opacity:1;stroke:#005544;stroke-width:2.69607544;stroke-miterlimit:4;stroke-opacity:1"/>
          <path sodipodi:type="arc" style="fill:url(#linearGradient4793);fill-opacity:1;stroke:none" id="path2816-3" sodipodi:cx="272.85715" sodipodi:cy="402.36218" sodipodi:rx="132.85715" sodipodi:ry="132.85715" d="m 405.71429,402.36218 c 0,73.37498 -59.48217,132.85715 -132.85714,132.85715 C 199.48217,535.21933 140,475.73716 140,402.36218 c 0,-73.37497 59.48217,-132.85714 132.85715,-132.85714 66.82166,0 123.24563,49.63052 131.77132,115.90606" sodipodi:start="0" sodipodi:end="6.1552478" sodipodi:open="true" transform="matrix(0.997312, 0, 0, 0.997312, -6.40937, 23.9388)"/>
          <g transform="translate(-8.57143, 27.1429)" id="g4266">
            <path sodipodi:type="arc" style="fill:#ffffff;fill-opacity:1;stroke:#ffffff;stroke-width:3;stroke-linecap:round;stroke-linejoin:round;stroke-miterlimit:4;stroke-opacity:1;stroke-dasharray:none" id="path3605" sodipodi:cx="201.52544" sodipodi:cy="373.03461" sodipodi:rx="13.131983" sodipodi:ry="13.131983" d="m 214.65742,373.03461 c 0,7.25259 -5.87939,13.13198 -13.13198,13.13198 -7.2526,0 -13.13199,-5.87939 -13.13199,-13.13198 0,-7.2526 5.87939,-13.13199 13.13199,-13.13199 7.25259,0 13.13198,5.87939 13.13198,13.13199 z" transform="matrix(1.25889, 0, 0, 1.25889, -48.3848, -92.7868)"/>
            <path sodipodi:type="arc" style="fill:#1a1a1a;fill-opacity:1;stroke:#1a1a1a;stroke-width:3;stroke-linecap:round;stroke-linejoin:round;stroke-miterlimit:4;stroke-opacity:1;stroke-dasharray:none" id="path3605-9" sodipodi:cx="201.52544" sodipodi:cy="373.03461" sodipodi:rx="13.131983" sodipodi:ry="13.131983" d="m 214.65742,373.03461 c 0,7.25259 -5.87939,13.13198 -13.13198,13.13198 -7.2526,0 -13.13199,-5.87939 -13.13199,-13.13198 0,-7.2526 5.87939,-13.13199 13.13199,-13.13199 7.25259,0 13.13198,5.87939 13.13198,13.13199 z" transform="matrix(0.533998, 0, 0, 0.533998, 92.396, 177.37)"/>
          </g>
          <path sodipodi:nodetypes="cccc" id="path4370-8" d="m 349.99999,536.3766 c 39.70364,16.57323 92.37201,-57.7947 134.28572,-37.97154 l -4.47619,-23.3671 C 424.95991,464.31465 389.93391,506.951 349.99999,536.3766 z" style="fill:#008080;fill-opacity:1;stroke:none"/>
          <path id="rect2820-6" d="m 280.39732,296.70089 c 1.3818,6.08042 2.60652,14.16958 3.75,20.25 13.25699,3.68465 23,15.81889 23,30.25 0,11.53512 -6.23632,21.62674 -15.5,27.09375 0.004,0.0517 -0.004,0.10457 0,0.15625 9.25173,5.46971 15.5,15.50518 15.5,27.03125 0,10.63276 -5.29379,20.03147 -13.375,25.71875 8.08121,5.68728 13.375,15.08599 13.375,25.71875 0,11.62175 -6.33977,21.74948 -15.71875,27.1875 6.98491,5.76446 11.4375,14.48639 11.4375,24.25 0,13.01814 -7.93605,24.19512 -19.21875,28.96875 -1.0261,6.60458 -2.09017,13.20792 -3.25,19.8125 126.23484,-10.186 127.6935,-115.78408 229.28125,-69.09375 l 5.75,3.28125 c 25.95641,13.09912 41.41978,63.2105 59.75,51.28125 19.07777,-10.08473 -15.5541,-53.27529 -15.40625,-112.03125 0.14785,-58.75595 37.63522,-95.69074 15.5625,-111.40625 -20.36053,-13.9204 -39.93801,35.95233 -62.25,49.875 l -4.21875,3.0625 C 408.31101,420.68926 394.42756,306.9073 280.39732,296.70089 z m 30.25,14.40625 c 7.41255,-0.38452 14.42317,4.22621 16.8125,11.625 2.45046,7.58807 -0.7787,15.6394 -7.34375,19.5625 3.12048,-5.0883 4.10314,-11.46824 2.125,-17.59375 -2.10608,-6.52167 -7.09927,-11.30697 -13.09375,-13.4375 0.49628,-0.0706 1.00583,-0.13062 1.5,-0.15625 z m 35.3125,18.8125 c 8.08363,0.64315 14.99665,6.98721 16.34375,15.625 1.40105,8.98381 -3.71583,17.41986 -11.75,20.1875 4.62687,-5.01528 7.03277,-12.13862 5.875,-19.5625 -1.08744,-6.97288 -5.07227,-12.78287 -10.46875,-16.25 z m -26.75,22.65625 c 9.61802,2.2142 16.78125,10.83469 16.78125,21.125 0,10.70253 -7.73825,19.58213 -17.9375,21.34375 6.51657,-4.99368 10.71875,-12.84333 10.71875,-21.6875 0,-8.3069 -3.71247,-15.77008 -9.5625,-20.78125 z m 61.90625,5.8125 c 5.8797,0.4678 10.92642,5.06097 11.90625,11.34375 1.01906,6.53445 -2.71877,12.67444 -8.5625,14.6875 3.3654,-3.64791 5.09211,-8.81892 4.25,-14.21875 -0.79096,-5.07179 -3.66858,-9.29065 -7.59375,-11.8125 z m 33.71875,18.34375 c 5.93435,0.47215 11.01107,5.09633 12,11.4375 1.02853,6.59518 -2.72697,12.81197 -8.625,14.84375 3.39667,-3.68181 5.16244,-8.92499 4.3125,-14.375 -0.79831,-5.11892 -3.72584,-9.36096 -7.6875,-11.90625 z m -63.46875,5.625 c 7.88798,1.88109 13.78125,9.19531 13.78125,17.9375 0,9.09242 -6.35409,16.6284 -14.71875,18.125 5.34441,-4.24242 8.78125,-10.92388 8.78125,-18.4375 0,-7.05717 -3.04598,-13.36774 -7.84375,-17.625 z m 99.0625,9.125 c 6.03484,1.3893 10.53125,6.79333 10.53125,13.25 0,6.71532 -4.85047,12.30092 -11.25,13.40625 4.08883,-3.13328 6.71875,-8.07572 6.71875,-13.625 0,-5.21218 -2.32939,-9.88699 -6,-13.03125 z m 41.75,1.3125 c 5.05504,1.16373 8.8125,5.68537 8.8125,11.09375 0,5.62503 -4.04574,10.32413 -9.40625,11.25 3.42498,-2.62457 5.625,-6.75794 5.625,-11.40625 0,-4.36594 -1.95659,-8.30373 -5.03125,-10.9375 z m -107.125,3.71875 c 5.73739,1.36823 10,6.67254 10,13.03125 0,6.61345 -4.60339,12.13018 -10.6875,13.21875 3.8873,-3.08576 6.40625,-7.97241 6.40625,-13.4375 0,-5.1331 -2.22905,-9.71595 -5.71875,-12.8125 z m -65.0625,12.8125 c 9.61802,2.2142 16.78125,10.83469 16.78125,21.125 0,10.70253 -7.73825,19.58213 -17.9375,21.34375 6.51657,-4.99368 10.71875,-12.84333 10.71875,-21.6875 0,-8.3069 -3.71247,-15.77008 -9.5625,-20.78125 z m 155.0625,4.15625 c 5.28793,1.21735 9.21875,5.9362 9.21875,11.59375 0,5.88418 -4.23627,10.78147 -9.84375,11.75 3.58277,-2.74549 5.875,-7.07503 5.875,-11.9375 0,-4.56708 -2.03369,-8.65114 -5.25,-11.40625 z m -56.25,0.90625 c 5.79072,1.38094 10.09375,6.73844 10.09375,13.15625 0,6.67491 -4.64059,12.21382 -10.78125,13.3125 3.92343,-3.11444 6.4375,-8.01536 6.4375,-13.53125 0,-5.1808 -2.22786,-9.81216 -5.75,-12.9375 z m 94.375,3.1875 c 3.12288,0.71892 5.46875,3.50259 5.46875,6.84375 0,3.47501 -2.53215,6.36552 -5.84375,6.9375 2.11587,-1.6214 3.5,-4.15964 3.5,-7.03125 0,-2.69717 -1.22556,-5.12293 -3.125,-6.75 z m -127,17.15625 c 5.7374,1.36823 10,6.67254 10,13.03125 0,6.61345 -4.60337,12.13018 -10.6875,13.21875 3.88731,-3.08577 6.40625,-7.94115 6.40625,-13.40625 0,-5.13309 -2.22905,-9.7472 -5.71875,-12.84375 z m -33.25,0.15625 c 7.88798,1.88109 13.75,9.19531 13.75,17.9375 0,9.09242 -6.35407,16.65965 -14.71875,18.15625 5.34441,-4.24243 8.8125,-10.92388 8.8125,-18.4375 0,-7.05717 -3.04598,-13.39899 -7.84375,-17.65625 z m 97.5,0.625 c 6.03484,1.38931 10.53125,6.79333 10.53125,13.25 0,6.71531 -4.85047,12.30092 -11.25,13.40625 4.08883,-3.13329 6.71875,-8.07572 6.71875,-13.625 0,-5.21218 -2.32939,-9.88698 -6,-13.03125 z m 41.75,0.75 c 5.05504,1.16374 8.8125,5.68537 8.8125,11.09375 0,5.62502 -4.04574,10.29288 -9.40625,11.21875 3.42498,-2.62457 5.625,-6.75793 5.625,-11.40625 0,-4.36593 -1.95659,-8.27248 -5.03125,-10.90625 z m -73.875,16.21875 c 5.60046,2.01849 9.3099,7.84101 8.59375,14.21875 -0.74483,6.63322 -6.02509,11.62465 -12.25,12.03125 4.24646,-2.65718 7.322,-7.26855 7.9375,-12.75 0.57811,-5.14844 -1.12985,-10.00115 -4.28125,-13.5 z m -99.3125,13.59375 c 9.61802,2.2142 16.78125,10.83469 16.78125,21.125 0,10.70253 -7.73825,19.58213 -17.9375,21.34375 6.51657,-4.99368 10.71875,-12.84333 10.71875,-21.6875 0,-8.3069 -3.71247,-15.77008 -9.5625,-20.78125 z m 65.5625,7 c 5.54888,1.9999 9.20956,7.77474 8.5,14.09375 -0.73797,6.57215 -5.92616,11.50339 -12.09375,11.90625 4.20736,-2.63271 7.23392,-7.19403 7.84375,-12.625 0.57278,-5.10103 -1.12762,-9.90837 -4.25,-13.375 z m -33.84375,14.53125 c 7.62881,2.74954 12.66302,10.68739 11.6875,19.375 -1.01459,9.03563 -8.17682,15.82114 -16.65625,16.375 5.78443,-3.61955 9.94283,-9.87705 10.78125,-17.34375 0.78748,-7.01309 -1.51974,-13.6402 -5.8125,-18.40625 z m -36.6875,27.96875 c 5.65267,5.1515 7.22448,13.67662 3.3125,20.625 -4.06869,7.22672 -12.6934,10.28161 -20.25,7.59375 6.29863,-0.89456 12.1378,-4.59062 15.5,-10.5625 3.15796,-5.60912 3.48259,-12.04859 1.4375,-17.65625 z" style="fill:#ffff00;fill-opacity:1;stroke:none"/>
          <g transform="matrix(0.831658, -0.583089, 0.59699, 0.827707, -317.461, 158.228)" id="g4076">
            <path style="fill:url(#linearGradient4795);fill-opacity:1;stroke:none" d="m 182.83761,538.69958 33.33504,2 c 4.477,0 8.08122,1.60423 8.08122,6.08123 0,4.47699 -3.60422,6.08122 -8.08122,6.08122 l -33.33504,2 c -4.47699,0 -8.08122,-3.60423 -8.08122,-8.08122 0,-4.477 3.60423,-8.08123 8.08122,-8.08123 z" id="rect3937" sodipodi:nodetypes="ccsccsc"/>
            <path style="fill:url(#linearGradient4797);fill-opacity:1;stroke:none" d="m 182.83813,553.87322 33.26545,-2.93852 c 4.42804,-0.66033 8.22945,0.39477 8.88977,4.8228 0.66032,4.42803 -2.66787,6.54631 -7.09591,7.20663 l -32.67548,6.89477 c -4.42802,0.66032 -8.52443,-2.3729 -9.18475,-6.80092 -0.66032,-4.42804 2.3729,-8.52444 6.80092,-9.18476 z" id="rect3937-1" sodipodi:nodetypes="ccsccsc"/>
          </g>
          <path inkscape:transform-center-x="-12.944911" transform="matrix(0.675305, 0.433984, -0.399963, 0.521653, 166.237, 100.015)" d="m 248.57143,312.36218 c 0,12.62365 -6.07614,22.85715 -13.57143,22.85715 -7.49529,0 -13.57143,-10.2335 -13.57143,-22.85715 0,-12.62365 6.07614,-22.85714 13.57143,-22.85714 7.49529,0 13.57143,10.23349 13.57143,22.85714 z" sodipodi:ry="22.857143" sodipodi:rx="13.571428" sodipodi:cy="312.36218" sodipodi:cx="235" id="path4256" style="opacity:0.91798108;fill:#ffffff;fill-opacity:1;stroke:none;filter:url(#filter4262)" sodipodi:type="arc"/>
          <g transform="translate(17.1429, -201.429)" id="g4443">
            <path style="opacity:0.70347003;fill:#000000;fill-opacity:1;stroke:#000000;stroke-width:2.29886389;stroke-linecap:round;stroke-linejoin:round;stroke-miterlimit:4;stroke-opacity:1;stroke-dasharray:none;filter:url(#filter4439)" d="m 331.5181,633.20635 c 41.97393,14.90453 61.04099,11.08448 77.85488,18.63067 0.83632,12.70112 -32.49595,13.41408 -32.49595,13.41408 0,0 18.08956,8.70628 20.98697,17.14022 -8.52841,6.35852 -39.26594,2.23568 -39.26594,2.23568 0,0 13.25974,28.39926 3.38499,26.82817 -13.09184,-18.30836 -39.94294,-36.51612 -39.94294,-36.51612" id="path4415-1" sodipodi:nodetypes="ccccccc"/>
            <path style="fill:#ffff00;fill-opacity:1;stroke:#249292;stroke-width:2.29886389;stroke-linecap:round;stroke-linejoin:round;stroke-miterlimit:4;stroke-opacity:1;stroke-dasharray:none" d="m 330.10585,627.82885 c 41.97393,14.90453 61.04099,11.08448 77.85488,18.63067 0.83632,12.70112 -32.49595,13.41408 -32.49595,13.41408 0,0 18.08956,8.70628 20.98697,17.14022 -8.52841,6.35852 -39.26594,2.23568 -39.26594,2.23568 0,0 13.25974,28.39926 3.38499,26.82817 -13.09184,-18.30836 -39.94294,-36.51612 -39.94294,-36.51612" id="path4415" sodipodi:nodetypes="ccccccc"/>
          </g>
          <path transform="matrix(0.902471, 0, 0, 1, 52.0969, 0)" sodipodi:nodetypes="cscc" style="opacity:0.36908515;fill:#1a1a1a;fill-opacity:1;stroke:none;filter:url(#filter4702)" d="m 578.11933,541.76397 c 19.07777,-10.08473 -15.5541,-53.27529 -15.40625,-112.03125 0.14785,-58.75595 37.63522,-95.69074 15.5625,-111.40625 -8.75057,-17.29918 -77.65573,131.49203 -0.15625,223.4375 z" id="rect2820-6-5"/>
        </g>
      </g>
      <path sodipodi:open="true" sodipodi:end="6.1552478" sodipodi:start="0" d="m 685.71426,519.50507 c 0,26.03628 -136.23335,47.14285 -304.2857,47.14285 -168.05236,0 -304.285707,-21.10657 -304.285707,-47.14285 0,-26.03628 136.233347,-47.14286 304.285707,-47.14286 153.04315,0 282.27224,17.61083 301.79882,41.12796" sodipodi:ry="47.142857" sodipodi:rx="304.28571" sodipodi:cy="519.50507" sodipodi:cx="381.42856" id="path4735" style="opacity:0.36908515;fill:#006d80;fill-opacity:1;stroke:none;filter:url(#filter4753)" sodipodi:type="arc"/>
      <path transform="matrix(0.85267, 0.391689, -0.456774, 0.631834, 637.974, -446.272)" sodipodi:open="true" sodipodi:end="6.1552478" sodipodi:start="0" d="m 391.42858,686.64789 c 0,23.66934 -7.03553,42.85714 -15.71429,42.85714 -8.67876,0 -15.71428,-19.1878 -15.71428,-42.85714 0,-23.66935 7.03552,-42.85715 15.71428,-42.85715 7.90364,0 14.57744,16.00985 15.58586,37.38906" sodipodi:ry="42.857143" sodipodi:rx="15.714286" sodipodi:cy="686.64789" sodipodi:cx="375.71429" id="path4757" style="opacity:0.66561513;fill:#ffffff;fill-opacity:1;stroke:none;filter:url(#filter4763)" sodipodi:type="arc"/>
    </g>
  </g>
</svg>